<svg xmlns="http://www.w3.org/2000/svg" width="18" height="18" fill="none"><g fill="#0070F0" clip-path="url(#a)"><path fill-rule="evenodd" d="M2.03.97A.75.75 0 0 0 .97 2.03l4.536 4.537-3.457.96a.75.75 0 0 0-.549.723v2.25a.75.75 0 0 0 .587.732l1.465.325a3.006 3.006 0 0 0 5.854 1.3l3.073.683 3.49 3.49a.75.75 0 1 0 1.061-1.06l-3.637-3.637a1.41 1.41 0 0 0-.017-.018l-5.89-5.89a.747.747 0 0 0-.02-.02L2.03.97Zm4.694 6.815L3 8.82v1.078l7.504 1.667-3.78-3.78Zm-1.694 4.4a1.507 1.507 0 0 1-.007-.3l2.912.646a1.506 1.506 0 0 1-2.905-.345Z" clip-rule="evenodd"/><path d="M16.5 4.5a.75.75 0 0 0-.95-.723L10.066 5.3a.75.75 0 0 0 .401 1.445L15 5.487v6.018a.75.75 0 0 0 1.5 0V4.5Z"/></g><defs><clipPath id="a"><path fill="#fff" d="M0 0h18v18H0z"/></clipPath></defs></svg>