<svg xmlns="http://www.w3.org/2000/svg" width="18" height="18" fill="none"><g fill="#0070F0" clip-path="url(#a)"><path d="M7.5.75h3a.75.75 0 0 1 0 1.5h-3a.75.75 0 0 1 0-1.5ZM3.738 7.558a.75.75 0 0 1 .404.98 5.25 5.25 0 0 0 1.113 5.707 5.25 5.25 0 0 0 5.707 1.113.75.75 0 0 1 .576 1.384 6.75 6.75 0 0 1-7.34-1.434l-.006-.005a6.75 6.75 0 0 1-1.434-7.341.75.75 0 0 1 .98-.404Z"/><path fill-rule="evenodd" d="M5.03 6.09a.728.728 0 0 1-.02-.019L.97 2.031A.75.75 0 0 1 2.03.97L5.66 4.598a6.75 6.75 0 0 1 8.151 1.176 6.75 6.75 0 0 1 1.092 8.067l2.128 2.129a.75.75 0 1 1-1.06 1.06l-2.541-2.54a.7.7 0 0 1-.02-.02L5.03 6.09Zm9.22 3.979a5.25 5.25 0 0 1-.462 2.658L9.75 8.69V7.5a.75.75 0 0 0-1.453-.263L6.772 5.712a5.25 5.25 0 0 1 5.965 1.11l.006.007a5.25 5.25 0 0 1 1.507 3.24Z" clip-rule="evenodd"/></g><defs><clipPath id="a"><path fill="#fff" d="M0 0h18v18H0z"/></clipPath></defs></svg>