<svg xmlns="http://www.w3.org/2000/svg" width="18" height="18" fill="none"><path fill="#0070F0" fill-rule="evenodd" d="m9.286 3.308-6.28 6.536h5.248a1.488 1.488 0 0 1 1.234.65 1.525 1.525 0 0 1 .182 1.376l-.946 2.995 6.28-6.536H9.757a1.488 1.488 0 0 1-1.234-.65 1.524 1.524 0 0 1-.182-1.376l.946-2.995Zm.638-2.54c.251-.046.51-.005.735.116a1.147 1.147 0 0 1 .546 1.333l-1.44 4.561a.766.766 0 0 1-.012.035h5.252c.283 0 .561.08.801.232a1.53 1.53 0 0 1 .323 2.288l-7.415 7.718a1.122 1.122 0 0 1-1.363.238 1.132 1.132 0 0 1-.503-.554 1.147 1.147 0 0 1-.043-.78l1.44-4.56a.755.755 0 0 1 .012-.035H3.004c-.283 0-.561-.08-.801-.232a1.51 1.51 0 0 1-.556-.63 1.529 1.529 0 0 1 .233-1.659l7.415-7.717c.165-.184.386-.308.628-.353Z" clip-rule="evenodd"/></svg>